<svg width="30" height="30" viewBox="0 0 30 30" fill="none" xmlns="http://www.w3.org/2000/svg">
<path d="M15.0002 7.20001C7.00222 7.20001 0.744319 14.6098 0.744319 14.6098C0.651248 14.7185 0.600098 14.8569 0.600098 15C0.600098 15.1431 0.651248 15.2815 0.744319 15.3902C0.744319 15.3902 7.00222 22.8 15.0002 22.8C22.9981 22.8 29.256 15.3902 29.256 15.3902C29.3491 15.2815 29.4003 15.1431 29.4003 15C29.4003 14.8569 29.3491 14.7185 29.256 14.6098C29.256 14.6098 22.9981 7.20001 15.0002 7.20001ZM15.0002 8.40001C16.5998 8.40001 18.1275 8.73191 19.5412 9.24259C20.4842 10.325 21.0002 11.6362 21.0002 13.2C21.0002 16.5387 18.3389 19.2 15.0002 19.2C11.6615 19.2 9.00018 16.5387 9.00018 13.2C9.00018 11.7178 9.57228 10.3293 10.4662 9.24025C11.878 8.731 13.4031 8.40001 15.0002 8.40001ZM8.51619 10.0863C8.06543 11.0354 7.80018 12.0905 7.80018 13.2C7.80018 17.1813 11.0189 20.4 15.0002 20.4C18.9815 20.4 22.2002 17.1813 22.2002 13.2C22.2002 12.0803 21.9601 11.0404 21.5217 10.1051C24.9172 11.8318 27.3522 14.3383 27.9635 15C27.0068 16.0356 21.5955 21.6 15.0002 21.6C8.40488 21.6 2.99351 16.0356 2.0369 15C2.65037 14.3359 5.10119 11.8135 8.51619 10.0863ZM15.0002 10.2C14.2045 10.2 13.4415 10.5161 12.8789 11.0787C12.3162 11.6413 12.0002 12.4044 12.0002 13.2C12.0002 13.9957 12.3162 14.7587 12.8789 15.3213C13.4415 15.8839 14.2045 16.2 15.0002 16.2C15.7958 16.2 16.5589 15.8839 17.1215 15.3213C17.6841 14.7587 18.0002 13.9957 18.0002 13.2C18.0002 12.4044 17.6841 11.6413 17.1215 11.0787C16.5589 10.5161 15.7958 10.2 15.0002 10.2Z" fill="white"/>
</svg>
