<svg width="44" height="44" viewBox="0 0 44 44" fill="none" xmlns="http://www.w3.org/2000/svg">
<path d="M39.6549 2.14496C38.4655 2.0934 37.3517 2.88402 37.0424 4.06996L35.8324 8.77246L32.5324 13.53L27.2799 14.7125C26.3896 14.9153 25.5749 15.3759 24.9699 16.06L21.3399 20.1025C20.8792 20.6146 20.5286 21.2506 20.3499 21.9175L19.1124 26.5925C18.7755 27.8471 19.5111 29.1603 20.7624 29.5075C21.9999 29.8512 23.3061 29.1156 23.6774 27.885L24.9149 23.7875L26.8674 21.835C26.8502 22.3643 26.9808 22.715 26.8674 23.265C26.6267 24.4509 26.2624 25.4375 26.2624 25.4375L22.8524 32.01C22.6667 32.3675 22.5224 32.749 22.4399 33.1375L21.2024 39.105C20.8621 40.7206 22.1099 42.295 23.7599 42.295H24.0349C25.2792 42.295 26.3724 41.3943 26.6199 40.1775L27.7749 34.485L30.7174 29.205L33.1099 32.3125L33.9624 39.9575C34.1102 41.2809 35.2446 42.295 36.5749 42.295C38.1183 42.295 39.3455 40.9165 39.1874 39.38L38.3624 31.24C38.3108 30.745 38.163 30.2603 37.9499 29.81L35.4474 24.53C35.6364 24.0075 36.5749 21.1956 36.2449 18.04L40.3699 11.0825C40.4042 11.0206 40.4317 10.9587 40.4524 10.89L42.0199 5.41746C42.4186 4.02871 41.5799 2.57808 40.1774 2.22746C40.0089 2.18621 39.8233 2.15183 39.6549 2.14496ZM16.9399 2.41996C16.6167 2.42683 16.2867 2.49558 15.9774 2.63996C14.8189 3.17621 14.2655 4.53402 14.7399 5.71996L16.2799 9.62496L13.7774 14.08L9.56986 14.6575L6.92986 11.6325L7.06736 10.4225C7.22549 12.4575 8.92705 14.08 10.9999 14.08C13.1758 14.08 14.9599 12.2959 14.9599 10.12C14.9599 7.94402 13.1758 6.15996 10.9999 6.15996C9.24674 6.15996 7.74799 7.32183 7.23236 8.90996L7.47986 6.84746C7.64143 5.47246 6.57924 4.22465 5.19736 4.15246H5.00486C3.73299 4.08715 2.60893 5.02902 2.47486 6.29746L1.84236 12.21C1.75299 13.0418 1.99705 13.8531 2.50236 14.52L6.76486 20.1575L5.22486 23.5675C4.59924 24.9459 4.35174 26.4618 4.50986 27.9675L5.74736 39.7925C5.89174 41.1675 7.06049 42.24 8.44236 42.24C10.0167 42.24 11.268 40.8684 11.1374 39.2975L10.2574 28.71L10.3674 28.6275L13.1174 32.4775L11.7149 39.05C11.3642 40.6759 12.6361 42.24 14.2999 42.24C15.4961 42.24 16.5308 41.4218 16.8299 40.26L18.6999 33.0825C18.9199 32.23 18.8099 31.3328 18.3974 30.5525L15.4549 24.97L16.8574 18.7L21.0924 11.605C21.5496 10.8384 21.6458 9.9034 21.3124 9.07496L19.2224 3.93246C18.968 3.29652 18.4696 2.81871 17.8749 2.58496C17.5792 2.46808 17.263 2.41308 16.9399 2.41996ZM39.4074 3.90496C39.5105 3.89121 39.6274 3.90496 39.7374 3.93246C40.1946 4.0459 40.4455 4.49621 40.3149 4.94996L38.7474 10.395L34.6224 17.3525C34.5124 17.5243 34.4608 17.7271 34.4849 17.93C34.8974 20.8725 33.6874 24.31 33.6874 24.31C33.6014 24.5334 33.6117 24.7809 33.7149 24.9975L36.3549 30.5525C36.4821 30.824 36.5714 31.1334 36.6024 31.4325L37.4274 39.5725C37.4824 40.0984 37.1042 40.535 36.5749 40.535C36.1246 40.535 35.7739 40.2118 35.7224 39.765L34.8149 31.845C34.8011 31.6868 34.7427 31.5356 34.6499 31.405L31.3224 27.0875C31.1471 26.8434 30.8583 26.7025 30.5558 26.7196C30.2567 26.7368 29.9852 26.9053 29.8374 27.17L26.1799 33.715C26.1386 33.794 26.1111 33.8765 26.0974 33.9625L24.8874 39.82C24.8049 40.229 24.4508 40.535 24.0349 40.535H23.7599C23.1892 40.535 22.7905 40.0503 22.9074 39.49L24.1724 33.495C24.2239 33.2578 24.3099 33.0171 24.4199 32.8075L27.8849 26.125C27.9055 26.0906 27.9227 26.0528 27.9399 26.015C27.9399 26.015 28.3317 24.9459 28.5999 23.6225C28.868 22.299 29.1224 20.7521 28.4899 19.4425C28.3661 19.1881 28.1289 19.0093 27.8505 18.9612C27.5755 18.9131 27.2902 18.999 27.0874 19.195L23.5399 22.66C23.4333 22.7665 23.3577 22.9006 23.3199 23.045L21.9999 27.39C21.9002 27.7234 21.5633 27.8953 21.2299 27.8025C20.893 27.7096 20.7246 27.3728 20.8174 27.0325L22.0549 22.3575C22.1614 21.9587 22.3539 21.5943 22.6324 21.285L26.2899 17.2425C26.2899 17.2321 26.2899 17.2253 26.2899 17.215C26.6508 16.8093 27.1321 16.5378 27.6649 16.4175L33.2474 15.1525C33.4708 15.1078 33.6667 14.9806 33.7974 14.795L37.3724 9.62496C37.4377 9.53215 37.4824 9.43246 37.5099 9.32246L38.7474 4.50996C38.8333 4.17652 39.0946 3.94965 39.4074 3.90496ZM16.9949 4.17996C17.2561 4.17308 17.4899 4.32433 17.5999 4.59246L19.6624 9.73496C19.7896 10.0546 19.7552 10.4018 19.5799 10.6975L15.2624 17.93C15.2142 18.0056 15.1764 18.0881 15.1524 18.1775L13.6399 24.8875C13.5952 25.0937 13.6227 25.3068 13.7224 25.4925L16.8574 31.3775C17.0636 31.7659 17.1049 32.2162 16.9949 32.6425L15.1249 39.82C15.0217 40.2118 14.7055 40.48 14.2999 40.48C13.7189 40.48 13.2961 39.9746 13.4199 39.4075L14.9324 32.4775C14.9839 32.2403 14.9324 31.9893 14.7949 31.79L11.2749 26.8675C11.1374 26.675 10.9277 26.5478 10.6974 26.5134C10.4636 26.4756 10.2264 26.534 10.0374 26.675L8.79986 27.6375C8.56611 27.8231 8.44236 28.1118 8.46986 28.4075L9.40486 39.435C9.45299 40.0056 9.01299 40.48 8.44236 40.48C7.94736 40.48 7.53143 40.1225 7.47986 39.6275L6.26986 27.775C6.14611 26.5787 6.32143 25.3756 6.81986 24.2825L8.57986 20.405C8.71393 20.1196 8.67955 19.7828 8.49736 19.525L3.90486 13.475C3.67111 13.1656 3.56111 12.76 3.60236 12.375L4.23486 6.48996C4.27268 6.1359 4.5408 5.89527 4.89486 5.91246H5.11486C5.50674 5.93308 5.76455 6.26652 5.71986 6.65496L5.11486 11.7975C5.08736 12.0484 5.16643 12.2993 5.33486 12.485L8.57986 16.17C8.7758 16.4003 9.0783 16.5171 9.37736 16.4725L14.4649 15.7575C14.733 15.7162 14.9667 15.5546 15.0974 15.3175L18.0399 10.0925C18.1671 9.86558 18.1877 9.59402 18.0949 9.34996L16.3899 5.05996C16.2558 4.72652 16.3967 4.38621 16.7199 4.23496C16.8058 4.19371 16.9089 4.1834 16.9949 4.17996ZM28.5999 6.15996C26.4239 6.15996 24.6399 7.94402 24.6399 10.12C24.6399 12.2959 26.4239 14.08 28.5999 14.08C30.7758 14.08 32.5599 12.2959 32.5599 10.12C32.5599 7.94402 30.7758 6.15996 28.5999 6.15996ZM10.9999 7.91996C12.2236 7.91996 13.1999 8.89621 13.1999 10.12C13.1999 11.3437 12.2236 12.32 10.9999 12.32C9.77611 12.32 8.79986 11.3437 8.79986 10.12C8.79986 8.89621 9.77611 7.91996 10.9999 7.91996ZM28.5999 7.91996C29.8236 7.91996 30.7999 8.89621 30.7999 10.12C30.7999 11.3437 29.8236 12.32 28.5999 12.32C27.3761 12.32 26.3999 11.3437 26.3999 10.12C26.3999 8.89621 27.3761 7.91996 28.5999 7.91996Z" fill="url(#paint0_linear_59_213)"/>
<defs>
<linearGradient id="paint0_linear_59_213" x1="21.9717" y1="2.14258" x2="21.9717" y2="42.295" gradientUnits="userSpaceOnUse">
<stop stop-color="#FFC619"/>
<stop offset="0.489583" stop-color="#F69020"/>
<stop offset="1" stop-color="#EA422A"/>
</linearGradient>
</defs>
</svg>
