<svg width="46" height="46" viewBox="0 0 46 46" fill="none" xmlns="http://www.w3.org/2000/svg">
<g clip-path="url(#clip0_59_223)">
<path d="M31.5101 1.92627L30.9926 2.70252L22.8276 14.4613L15.6401 16.5888L15.6114 16.6175H15.5826C14.6734 16.9589 13.969 17.5555 13.4264 18.3138L13.3976 18.3425V18.3713L7.18762 27.945L6.95762 27.1975L0.920117 29.0088L0.0576172 29.2963L0.316367 30.1588L4.45637 44.045L4.71512 44.9363L5.60637 44.6775L10.7526 43.0963L11.6439 42.8375L11.3564 41.975L10.8389 40.2213L18.0551 38.6113C20.2725 38.1081 22.2921 36.9114 23.7189 35.075L24.0639 34.6438L27.5426 37.0875L28.2901 37.6338L28.8076 36.8575L45.4826 12.765L46.0001 12.0175L45.2239 11.4713L32.2576 2.47252L31.5101 1.92627ZM31.9701 4.48502L43.4414 12.4775L36.8576 21.9938C37.7021 19.3021 36.4084 16.0785 33.6664 14.1738C33.6592 14.1702 33.6736 14.1486 33.6664 14.145C33.6592 14.1378 33.6448 14.1522 33.6376 14.145C32.0384 13.0166 30.1373 12.5458 28.4051 12.7075C27.4132 12.801 26.4825 13.1172 25.6739 13.6275L31.9701 4.48502ZM35.8226 9.94752C35.3195 9.94393 34.8343 10.1919 34.5289 10.6375C34.0401 11.3491 34.2198 12.305 34.9314 12.7938C35.6429 13.2825 36.6276 13.1028 37.1164 12.3913C37.6051 11.6797 37.4254 10.7238 36.7139 10.235C36.4479 10.0517 36.1245 9.95111 35.8226 9.94752ZM28.6351 14.5188C29.9073 14.4038 31.3268 14.7524 32.5739 15.64L32.6026 15.6688C35.2081 17.4621 35.9843 20.5024 34.6726 22.3963H34.6439C33.9826 23.4169 32.8793 23.9703 31.5101 24.035C31.5568 22.9821 31.1831 21.9327 30.3601 21.16C30.3529 21.1528 30.3386 21.1672 30.3314 21.16C29.0771 19.9202 27.1221 19.7117 25.6739 20.6713C24.797 19.0936 24.7323 17.3794 25.5876 16.1575C26.2417 15.2124 27.3629 14.6338 28.6351 14.5188ZM21.1889 16.8763L16.7901 23.805L16.3014 24.61L17.1064 25.07L20.0389 26.8238L20.5851 27.1688L21.1026 26.7375L25.7601 22.9713C25.9973 22.8958 26.1914 22.7305 26.3064 22.5113L26.5364 22.3388C27.2695 21.7278 28.3907 21.7781 29.0664 22.4538V22.4825H29.0951C29.8498 23.1725 29.9181 24.2506 29.2676 25.0988L22.2814 33.925C21.1314 35.4021 19.4854 36.4119 17.6526 36.8288L10.3214 38.4675L7.73387 29.785L8.02137 29.67L8.33762 29.555L8.51012 29.2963L14.9214 19.4063C15.2843 18.896 15.6581 18.5833 16.1864 18.3713C16.2079 18.3641 16.2223 18.3497 16.2439 18.3425L21.1889 16.8763ZM23.2876 16.9913C22.9318 18.5905 23.2912 20.3263 24.2076 21.85L20.4414 24.9263L18.8601 23.9775L23.2876 16.9913ZM35.0176 24.6675L27.8301 35.075L25.1851 33.2063L30.7051 26.2488V26.22H30.7339C30.8201 26.1086 30.892 25.9936 30.9639 25.875C32.4589 25.9181 33.9 25.5336 35.0176 24.6675ZM5.72137 29.4688L9.34387 41.63L5.95137 42.665L2.32887 30.5325L5.72137 29.4688Z" fill="url(#paint0_linear_59_223)"/>
</g>
<defs>
<linearGradient id="paint0_linear_59_223" x1="23.0289" y1="1.92627" x2="23.0289" y2="44.9363" gradientUnits="userSpaceOnUse">
<stop stop-color="#FFC619"/>
<stop offset="0.494792" stop-color="#F69020"/>
<stop offset="1" stop-color="#EA422A"/>
</linearGradient>
<clipPath id="clip0_59_223">
<rect width="46" height="46" fill="white"/>
</clipPath>
</defs>
</svg>
