<svg width="27" height="27" viewBox="0 0 27 27" fill="none" xmlns="http://www.w3.org/2000/svg">
<g clip-path="url(#clip0_59_368)">
<path d="M6.82682 0C5.96327 0 5.25144 0.711248 5.25144 1.57538V11.5528H6.30169V1.57538C6.30169 1.27899 6.53089 1.05026 6.82682 1.05026H24.6812C24.9771 1.05026 25.2063 1.27899 25.2063 1.57538V24.681C25.2063 24.9766 24.9768 25.2062 24.6812 25.2062H6.82682C6.53121 25.2062 6.30169 24.9766 6.30169 24.681V14.7036H5.25144V24.681C5.25144 25.5449 5.96295 26.2564 6.82682 26.2564H24.6812C25.545 26.2564 26.2566 25.5449 26.2566 24.681V1.57538C26.2566 0.711248 25.5447 0 24.6812 0H6.82682ZM11.5755 6.87897C11.4712 6.87921 11.3692 6.91053 11.2827 6.96896C11.1962 7.02739 11.1291 7.11026 11.0899 7.20701C11.0507 7.30375 11.0413 7.40998 11.0627 7.51213C11.0842 7.61428 11.1356 7.70771 11.2104 7.78051L16.0319 12.6031H0.525283C0.455697 12.6021 0.38661 12.6149 0.322036 12.6409C0.257462 12.6668 0.198689 12.7054 0.149133 12.7542C0.0995765 12.8031 0.0602254 12.8613 0.0333663 12.9255C0.00650724 12.9897 -0.00732422 13.0586 -0.00732422 13.1282C-0.00732422 13.1978 0.00650724 13.2667 0.0333663 13.3309C0.0602254 13.3951 0.0995765 13.4533 0.149133 13.5022C0.198689 13.551 0.257462 13.5896 0.322036 13.6155C0.38661 13.6415 0.455697 13.6543 0.525283 13.6533H16.0319L11.2094 18.4759C11.159 18.5243 11.1188 18.5822 11.091 18.6464C11.0633 18.7105 11.0487 18.7795 11.048 18.8494C11.0472 18.9193 11.0605 18.9886 11.0869 19.0532C11.1133 19.1179 11.1524 19.1767 11.2018 19.2261C11.2512 19.2755 11.3099 19.3145 11.3746 19.341C11.4393 19.3674 11.5086 19.3806 11.5785 19.3799C11.6483 19.3792 11.7173 19.3645 11.7815 19.3368C11.8456 19.3091 11.9036 19.2689 11.9519 19.2185L18.0422 13.1282L11.953 7.03795C11.9039 6.98752 11.8452 6.94746 11.7804 6.92015C11.7156 6.89284 11.6459 6.87884 11.5755 6.87897Z" fill="url(#paint0_linear_59_368)"/>
</g>
<defs>
<linearGradient id="paint0_linear_59_368" x1="13.1246" y1="0" x2="13.1246" y2="26.2564" gradientUnits="userSpaceOnUse">
<stop stop-color="#FFC619"/>
<stop offset="0.46875" stop-color="#F69020"/>
<stop offset="1" stop-color="#EA422A"/>
</linearGradient>
<clipPath id="clip0_59_368">
<rect width="26.2564" height="26.2564" fill="white"/>
</clipPath>
</defs>
</svg>
