<svg width="29" height="29" viewBox="0 0 29 29" fill="none" xmlns="http://www.w3.org/2000/svg">
<path d="M14.4499 2.31201C9.9779 2.31201 6.35791 5.932 6.35791 10.404C6.35791 14.1079 8.29705 18.0646 10.2018 21.1343C12.1066 24.2039 14.0142 26.3905 14.0142 26.3905C14.0687 26.453 14.1362 26.503 14.2118 26.5372C14.2875 26.5714 14.3696 26.5888 14.4526 26.5884C14.5357 26.588 14.6176 26.5697 14.6929 26.5347C14.7682 26.4998 14.8351 26.449 14.8891 26.3859C14.8891 26.3859 16.7954 24.1576 18.6991 21.0677C20.6029 17.9777 22.5419 14.0265 22.5419 10.404C22.5419 5.932 18.9219 2.31201 14.4499 2.31201ZM14.4499 3.46801C18.3011 3.46801 21.3859 6.55282 21.3859 10.404C21.3859 13.602 19.568 17.4535 17.7147 20.4614C16.2102 22.9034 14.9589 24.462 14.4465 25.0854C13.9315 24.4697 12.6844 22.9427 11.184 20.5247C9.33177 17.5397 7.51391 13.6939 7.51391 10.404C7.51391 6.55282 10.5987 3.46801 14.4499 3.46801ZM14.4499 6.35801C12.2272 6.35801 10.4039 8.18134 10.4039 10.404C10.4039 12.6267 12.2272 14.45 14.4499 14.45C16.6726 14.45 18.4959 12.6267 18.4959 10.404C18.4959 8.18134 16.6726 6.35801 14.4499 6.35801ZM14.4499 7.51401C16.042 7.51401 17.3399 8.81188 17.3399 10.404C17.3399 11.9961 16.042 13.294 14.4499 13.294C12.8578 13.294 11.5599 11.9961 11.5599 10.404C11.5599 8.81188 12.8578 7.51401 14.4499 7.51401Z" fill="#606571"/>
</svg>
