<svg width="40" height="40" viewBox="0 0 40 40" fill="none" xmlns="http://www.w3.org/2000/svg">
<path d="M33.9748 1.60622C32.9998 1.60622 32.0248 1.97497 31.2873 2.71247L29.8342 4.16559C29.5529 4.44684 29.5217 4.89372 29.7623 5.21247L28.0623 6.91247C24.5967 10.3781 21.7061 11.4281 18.8029 12.3968C15.9029 13.3656 12.9404 14.25 9.89668 17.2968L2.55605 24.6343C1.2873 25.9031 1.2873 27.9843 2.55605 29.2562L6.6498 33.35L10.7436 37.4406C12.0154 38.7125 14.0967 38.7125 15.3654 37.4406L22.7029 30.1031C25.7498 27.0593 26.6342 24.0968 27.5998 21.1968C28.5686 18.2937 29.6186 15.4031 33.0873 11.9375L34.7873 10.2375C35.1061 10.4781 35.5529 10.4468 35.8342 10.1656L37.2873 8.71247C38.7654 7.23434 38.7654 4.81559 37.2873 3.33747L36.6623 2.71247C35.9217 1.97497 34.9498 1.6031 33.9748 1.60622ZM33.9748 3.19372C34.5373 3.19685 35.0998 3.41247 35.5342 3.84372L36.1561 4.46872C37.0217 5.33434 37.0217 6.71559 36.1561 7.58122L35.2748 8.46247L33.406 6.59372C33.3842 6.57184 33.3592 6.54997 33.3342 6.53122L31.5342 4.73122L32.4154 3.84372C32.8498 3.41247 33.4123 3.19372 33.9748 3.19372ZM19.9998 3.19997C19.5592 3.19997 19.1998 3.55935 19.1998 3.99997C19.1998 4.44059 19.5592 4.79997 19.9998 4.79997C20.4404 4.79997 20.7998 4.44059 20.7998 3.99997C20.7998 3.55935 20.4404 3.19997 19.9998 3.19997ZM24.7998 5.59997C24.3592 5.59997 23.9998 5.95934 23.9998 6.39997C23.9998 6.84059 24.3592 7.19997 24.7998 7.19997C25.2404 7.19997 25.5998 6.84059 25.5998 6.39997C25.5998 5.95934 25.2404 5.59997 24.7998 5.59997ZM30.8873 6.34997L33.6498 9.11247L31.9529 10.8062C30.7529 12.0093 29.8342 13.1625 29.0779 14.2843L25.7154 10.9218C26.8373 10.1656 27.9904 9.24684 29.1936 8.04684L30.8873 6.34997ZM24.3217 11.7875L28.2123 15.6781C27.5279 16.8906 27.0279 18.0562 26.6154 19.175L22.2748 17.725L20.8248 13.3843C21.9436 12.9718 23.1092 12.4718 24.3217 11.7875ZM19.3154 13.9125L20.8842 18.6125C20.9623 18.85 21.1498 19.0375 21.3873 19.1156L26.0873 20.6843C26.0842 20.6843 26.0842 20.6875 26.0842 20.6875C25.1061 23.625 24.3686 26.1781 21.5748 28.975L14.2373 36.3125C13.5779 36.9687 12.5342 36.9687 11.8748 36.3125L3.6873 28.125C3.03105 27.4656 3.03105 26.4218 3.6873 25.7625L11.0248 18.425C13.8217 15.6312 16.3748 14.8937 19.3123 13.9156C19.3123 13.9156 19.3154 13.9156 19.3154 13.9125ZM35.1998 14.4C34.7592 14.4 34.3998 14.7593 34.3998 15.2C34.3998 15.6406 34.7592 16 35.1998 16C35.6404 16 35.9998 15.6406 35.9998 15.2C35.9998 14.7593 35.6404 14.4 35.1998 14.4ZM37.5998 17.6C37.1592 17.6 36.7998 17.9593 36.7998 18.4C36.7998 18.8406 37.1592 19.2 37.5998 19.2C38.0404 19.2 38.3998 18.8406 38.3998 18.4C38.3998 17.9593 38.0404 17.6 37.5998 17.6ZM33.5998 19.2C33.1592 19.2 32.7998 19.5593 32.7998 20C32.7998 20.4406 33.1592 20.8 33.5998 20.8C34.0404 20.8 34.3998 20.4406 34.3998 20C34.3998 19.5593 34.0404 19.2 33.5998 19.2ZM18.3998 20C17.5154 20 16.7998 20.7156 16.7998 21.6C16.7998 22.4843 17.5154 23.2 18.3998 23.2C19.2842 23.2 19.9998 22.4843 19.9998 21.6C19.9998 20.7156 19.2842 20 18.3998 20ZM12.2436 20.4531C12.0342 20.4562 11.8373 20.5406 11.6873 20.6875L6.6498 25.7281C6.3373 26.0406 6.3373 26.55 6.6498 26.8625L13.1373 33.35C13.4498 33.6593 13.9592 33.6593 14.2717 33.35L19.3092 28.3093C19.6217 27.9968 19.6217 27.4906 19.3092 27.1781L12.8217 20.6875C12.6686 20.5375 12.4592 20.4531 12.2436 20.4531ZM12.2529 22.3875L17.6123 27.7437L13.7029 31.65L8.34668 26.2968L12.2529 22.3875Z" fill="url(#paint0_linear_59_243)"/>
<defs>
<linearGradient id="paint0_linear_59_243" x1="20.0021" y1="1.6062" x2="20.0021" y2="38.3945" gradientUnits="userSpaceOnUse">
<stop stop-color="#FFC619"/>
<stop offset="0.484375" stop-color="#F69020"/>
<stop offset="1" stop-color="#EA422A"/>
</linearGradient>
</defs>
</svg>
