<svg width="48" height="47" viewBox="0 0 48 47" fill="none" xmlns="http://www.w3.org/2000/svg">
<path d="M24.0002 1.8855C11.8207 1.8855 1.92578 11.5743 1.92578 23.5C1.92578 35.4257 11.8207 45.1145 24.0002 45.1145C36.1796 45.1145 46.0745 35.4257 46.0745 23.5C46.0745 11.5743 36.1796 1.8855 24.0002 1.8855ZM24.0002 3.75448C26.4853 3.75448 28.8625 4.19647 31.0595 4.99925L26.5014 15.4127C25.7088 15.1768 24.8699 15.0455 24.0002 15.0455C19.2434 15.0455 15.3658 18.8423 15.3658 23.5C15.3658 24.3516 15.4998 25.173 15.7408 25.9491L5.10578 30.4123C4.28592 28.261 3.83453 25.9334 3.83453 23.5C3.83453 12.5837 12.8516 3.75448 24.0002 3.75448ZM32.807 5.75382C36.8651 7.68603 40.1506 10.903 42.1239 14.8766L31.502 19.3342C30.7312 18.01 29.6069 16.9092 28.2545 16.1544L32.807 5.75382ZM42.8945 16.5877C43.7144 18.739 44.1658 21.0666 44.1658 23.5C44.1658 34.4163 35.1487 43.2455 24.0002 43.2455C21.515 43.2455 19.1379 42.8035 16.9408 42.0007L21.4989 31.5873C22.2915 31.8232 23.1304 31.9545 24.0002 31.9545C28.757 31.9545 32.6345 28.1577 32.6345 23.5C32.6345 22.6484 32.5005 21.827 32.2595 21.0508L42.8945 16.5877ZM24.0002 16.9145C27.7259 16.9145 30.7258 19.8519 30.7258 23.5C30.7258 27.1481 27.7259 30.0855 24.0002 30.0855C20.2744 30.0855 17.2745 27.1481 17.2745 23.5C17.2745 19.8519 20.2744 16.9145 24.0002 16.9145ZM24.0002 20.68C22.4094 20.68 21.1202 21.9424 21.1202 23.5C21.1202 25.0576 22.4094 26.32 24.0002 26.32C25.5909 26.32 26.8802 25.0576 26.8802 23.5C26.8802 21.9424 25.5909 20.68 24.0002 20.68ZM16.4983 27.6657C17.2692 28.99 18.3934 30.0908 19.7458 30.8456L15.1933 41.2462C11.1352 39.3139 7.84973 36.097 5.87641 32.1234L16.4983 27.6657Z" fill="url(#paint0_linear_59_203)"/>
<defs>
<linearGradient id="paint0_linear_59_203" x1="24.0002" y1="1.8855" x2="24.0002" y2="45.1145" gradientUnits="userSpaceOnUse">
<stop stop-color="#FFC619"/>
<stop offset="0.5" stop-color="#F69020"/>
<stop offset="1" stop-color="#EA422A"/>
</linearGradient>
</defs>
</svg>
