<svg width="34" height="34" viewBox="0 0 34 34" fill="none" xmlns="http://www.w3.org/2000/svg">
<path d="M24.8484 2.01858C23.5837 2.04163 22.5677 2.40925 21.8759 3.07643C21.1841 3.74362 20.8615 4.66994 20.8377 5.64156C20.8377 5.642 20.8377 5.64244 20.8377 5.64288C20.8224 6.27599 20.9536 6.84724 21.1045 7.47605C20.9308 7.73799 20.8086 8.05584 20.8588 8.47608C20.8588 8.47652 20.8588 8.47696 20.8588 8.47739C20.9169 8.96014 21.0502 9.33181 21.2714 9.61409C21.3727 9.7434 21.5212 9.75304 21.6512 9.83092C21.7885 10.2846 21.9755 10.7152 22.2372 11.0596C22.4046 11.2799 22.5761 11.4766 22.7327 11.6365C22.7702 11.6749 22.8159 11.6978 22.8483 11.7311C22.8511 12.0729 22.8523 12.3936 22.8273 12.7482C22.7461 12.9254 22.497 13.1387 21.9626 13.3593C21.6605 13.484 21.2984 13.6084 20.9153 13.743C20.9355 13.5603 20.9507 13.3674 20.9534 13.1517C20.9534 13.1512 20.9534 13.1508 20.9534 13.1503C20.9607 12.5152 20.8574 11.8408 20.5013 11.2462C20.1713 10.6951 19.567 10.2768 18.8127 10.1213C18.3336 9.64271 17.6599 9.41961 16.902 9.41961C16.898 9.41957 16.8941 9.41957 16.8902 9.41961C15.6255 9.44266 14.6095 9.81028 13.9177 10.4775C13.2259 11.1446 12.9046 12.071 12.8808 13.0426C12.8808 13.043 12.8808 13.0435 12.8808 13.0439C12.8751 13.282 12.8955 13.5108 12.9242 13.7377C12.4667 13.582 12.0215 13.4414 11.6535 13.3028C11.101 13.0947 10.8406 12.8787 10.7756 12.7482C10.751 12.3956 10.7517 12.076 10.7546 11.7351C10.7872 11.7018 10.8325 11.6788 10.8703 11.6404C11.0273 11.4807 11.1988 11.2851 11.367 11.0649C11.6298 10.7207 11.8176 10.2889 11.9557 9.83486C12.0867 9.75684 12.2364 9.74795 12.3381 9.61803C12.5592 9.3357 12.6913 8.96346 12.7494 8.48134V8.48002C12.8 8.0581 12.6771 7.73754 12.5011 7.47473C12.6276 7.00073 12.7537 6.48417 12.7626 5.75457C12.7699 5.11943 12.6666 4.44367 12.3105 3.84913C11.9804 3.29796 11.3763 2.87972 10.6219 2.72425C10.1429 2.24577 9.47032 2.02252 8.7125 2.02252C8.70812 2.02248 8.70374 2.02248 8.69936 2.02252C7.43471 2.04594 6.41982 2.41313 5.72818 3.08038C5.03654 3.74762 4.71417 4.67404 4.69004 5.6455C4.69004 5.64594 4.69004 5.64638 4.69004 5.64682C4.67473 6.27993 4.80595 6.85118 4.9568 7.47999C4.78315 7.74193 4.66092 8.05978 4.71106 8.48002C4.71106 8.48046 4.71106 8.4809 4.71106 8.48134C4.76919 8.96427 4.90206 9.33706 5.12369 9.61935C5.22549 9.74901 5.37543 9.75701 5.50609 9.83486C5.64355 10.2878 5.82812 10.7195 6.08956 11.0635C6.25693 11.2838 6.4284 11.4792 6.58497 11.6391C6.62253 11.6775 6.6682 11.7004 6.70061 11.7337C6.70337 12.0772 6.7049 12.398 6.67959 12.7548C6.61185 12.9022 6.45003 13.0694 6.06065 13.2542C5.64835 13.4498 5.06841 13.6315 4.45613 13.8547C3.84384 14.0779 3.19238 14.3438 2.6177 14.7772C2.04301 15.2106 1.55089 15.8429 1.36273 16.6774C1.33873 16.7651 1.33275 16.8568 1.34517 16.9468C1.35758 17.0369 1.38812 17.1236 1.43495 17.2015C1.48178 17.2795 1.54392 17.3471 1.61762 17.4004C1.69133 17.4536 1.77506 17.4914 1.86377 17.5114C1.95247 17.5314 2.04431 17.5332 2.13374 17.5167C2.22317 17.5002 2.30833 17.4658 2.38407 17.4155C2.45982 17.3652 2.52458 17.3 2.57445 17.224C2.62431 17.148 2.65825 17.0626 2.6742 16.9731C2.78847 16.4663 3.03906 16.1449 3.42718 15.8521C3.8153 15.5594 4.34751 15.3266 4.91738 15.1189C5.48724 14.9111 6.08806 14.7298 6.63622 14.4697C7.18438 14.2096 7.73714 13.8423 7.97792 13.195C7.99879 13.1388 8.01205 13.08 8.01734 13.0202C8.07365 12.3944 8.05282 11.9545 8.05282 11.4381C8.05274 11.3155 8.01916 11.1952 7.9557 11.0903C7.89224 10.9854 7.80132 10.8998 7.69276 10.8428C7.80243 10.9003 7.65956 10.8133 7.5469 10.6982C7.43424 10.5832 7.29398 10.4227 7.16186 10.2488C6.89764 9.9011 6.69077 9.45362 6.67959 9.34864C6.66503 9.21202 6.60899 9.08314 6.51902 8.9793C6.42905 8.87547 6.30944 8.80166 6.17629 8.76781C6.15398 8.7366 6.08386 8.62308 6.0475 8.32102C6.03888 8.24872 6.05011 8.21283 6.06065 8.19223C6.16747 8.11229 6.24812 8.0024 6.29235 7.87651C6.33657 7.75063 6.34237 7.61444 6.30901 7.48525C6.11372 6.73369 6.02155 6.26301 6.03568 5.67836C6.05351 4.97117 6.26243 4.43483 6.6625 4.04887C7.06099 3.66444 7.69653 3.38942 8.7125 3.36816H8.71382C9.3923 3.36866 9.73954 3.58663 9.7835 3.66384C9.83454 3.75354 9.90553 3.8303 9.99098 3.88818C10.0764 3.94605 10.1741 3.9835 10.2763 3.99762C10.7671 4.06576 10.9819 4.24845 11.1567 4.54034C11.3315 4.83223 11.4223 5.27254 11.4169 5.7388C11.4076 6.50097 11.2857 7.07727 11.1646 7.44057C11.1197 7.575 11.1184 7.72017 11.1609 7.85538C11.2034 7.99059 11.2875 8.10894 11.4012 8.19355C11.4116 8.21432 11.4228 8.24923 11.4143 8.3197C11.3779 8.62254 11.3077 8.73671 11.2855 8.76781C11.1524 8.80166 11.0328 8.87547 10.9428 8.9793C10.8528 9.08314 10.7968 9.21202 10.7822 9.34864C10.7712 9.45183 10.5643 9.8997 10.2986 10.2475C10.1658 10.4214 10.0243 10.5817 9.91097 10.6969C9.79767 10.8121 9.65374 10.8998 9.76247 10.8428C9.65391 10.8998 9.56299 10.9854 9.49954 11.0903C9.43608 11.1952 9.40249 11.3155 9.40241 11.4381C9.40241 11.9533 9.38151 12.3943 9.43789 13.0202C9.44318 13.08 9.45644 13.1388 9.47731 13.195C9.76952 13.9785 10.4987 14.3067 11.1791 14.563C11.7948 14.7949 12.4416 14.9767 12.9873 15.1925C12.9117 15.3885 12.8701 15.6106 12.9019 15.8771C12.9019 15.8775 12.9019 15.878 12.9019 15.8784C12.96 16.3612 13.092 16.7328 13.3132 17.0151C13.4151 17.1451 13.5648 17.1552 13.6956 17.2333C13.8331 17.6861 14.019 18.1166 14.2804 18.4606C14.4477 18.6809 14.6179 18.8776 14.7745 19.0375C14.812 19.0759 14.8577 19.0988 14.8901 19.1321C14.8929 19.4734 14.8939 19.7939 14.8691 20.1479C14.785 20.3319 14.5149 20.5543 13.9479 20.7826C13.5564 20.9403 13.0754 21.0937 12.5747 21.2794C12.6705 20.8847 12.7555 20.4564 12.7626 19.8799C12.7699 19.2447 12.6666 18.569 12.3105 17.9744C11.98 17.4226 11.375 17.0032 10.6193 16.8482C10.1404 16.3713 9.46872 16.1478 8.7125 16.1478C8.70856 16.1478 8.70462 16.1478 8.70068 16.1478C7.436 16.1709 6.41997 16.5385 5.72818 17.2057C5.03638 17.8728 4.71378 18.7992 4.69004 19.7708C4.69004 19.7712 4.69004 19.7717 4.69004 19.7721C4.67473 20.4052 4.80595 20.9765 4.9568 21.6053C4.78315 21.8672 4.66092 22.1851 4.71106 22.6053C4.71106 22.6057 4.71106 22.6062 4.71106 22.6066C4.76917 23.0894 4.90249 23.461 5.12369 23.7433C5.22502 23.8726 5.37348 23.8823 5.50347 23.9601C5.64078 24.4138 5.82781 24.8444 6.08956 25.1888C6.25693 25.4091 6.4284 25.6058 6.58497 25.7657C6.62253 25.8041 6.6682 25.827 6.70061 25.8603C6.70336 26.203 6.70478 26.5242 6.67959 26.8801C6.61197 27.0273 6.44869 27.1947 6.05933 27.3794C5.64709 27.575 5.06844 27.7581 4.45613 27.9813C3.84381 28.2045 3.19112 28.4704 2.61638 28.9038C2.04164 29.3372 1.54959 29.9682 1.36141 30.8027C1.32209 30.9767 1.35352 31.1593 1.44877 31.3102C1.54402 31.4611 1.69531 31.568 1.86936 31.6074C2.04341 31.6467 2.22598 31.6154 2.37691 31.5202C2.52784 31.425 2.63477 31.2737 2.6742 31.0997C2.78847 30.5929 3.03901 30.2701 3.42718 29.9774C3.81536 29.6847 4.34615 29.4532 4.91606 29.2455C5.48597 29.0377 6.08807 28.8564 6.63622 28.5963C7.18437 28.3362 7.73605 27.9677 7.97661 27.3203C7.99748 27.2641 8.01074 27.2053 8.01603 27.1455C8.07234 26.5196 8.05282 26.0798 8.05282 25.5634C8.05262 25.4406 8.01883 25.3203 7.95513 25.2153C7.89144 25.1104 7.80025 25.0249 7.69145 24.9681C7.80112 25.0256 7.65824 24.9399 7.54558 24.8248C7.43292 24.7098 7.29266 24.5493 7.16055 24.3754C6.89632 24.0277 6.68945 23.5789 6.67827 23.4739C6.66364 23.3379 6.60788 23.2095 6.51842 23.106C6.42897 23.0025 6.31008 22.9286 6.1776 22.8944C6.1555 22.8636 6.08401 22.7496 6.0475 22.4463C6.03888 22.374 6.05011 22.3381 6.06065 22.3175C6.16747 22.2376 6.24812 22.1277 6.29235 22.0018C6.33657 21.8759 6.34237 21.7397 6.30901 21.6105C6.11372 20.859 6.02155 20.3883 6.03568 19.8036C6.05297 19.0959 6.26083 18.5603 6.66119 18.1742C7.0603 17.7892 7.69778 17.515 8.71645 17.4948C9.39181 17.4964 9.73915 17.712 9.78218 17.7878C9.83322 17.8775 9.90422 17.9543 9.98967 18.0121C10.0751 18.07 10.1727 18.1075 10.275 18.1216C10.7658 18.1897 10.9806 18.3737 11.1554 18.6656C11.3302 18.9575 11.4223 19.3978 11.4169 19.8641C11.4076 20.6263 11.2857 21.2026 11.1646 21.5659C11.1199 21.7 11.1185 21.8448 11.1608 21.9797C11.203 22.1146 11.2866 22.2328 11.3998 22.3175C11.4102 22.3378 11.4217 22.373 11.413 22.445C11.3764 22.7489 11.3048 22.8639 11.2829 22.8944C11.1504 22.9286 11.0315 23.0025 10.9421 23.106C10.8526 23.2095 10.7969 23.3379 10.7822 23.4739C10.7712 23.5771 10.5629 24.025 10.2973 24.3728C10.1645 24.5467 10.0243 24.707 9.91097 24.8222C9.79767 24.9374 9.65374 25.0237 9.76247 24.9668C9.65372 25.0239 9.56267 25.1096 9.4992 25.2148C9.43573 25.32 9.40225 25.4405 9.40241 25.5634C9.40241 26.0785 9.3802 26.5196 9.43657 27.1455C9.44535 27.2418 9.47477 27.3351 9.52285 27.419C9.57092 27.5029 9.63652 27.5755 9.71517 27.6318C9.99726 28.0666 10.397 28.3867 10.8361 28.595C11.3843 28.8551 11.9864 29.0364 12.5563 29.2442C13.1261 29.4519 13.657 29.6847 14.0451 29.9774C14.4333 30.2701 14.6838 30.5916 14.7981 31.0984C14.8166 31.1855 14.8522 31.2681 14.9029 31.3413C14.9535 31.4146 15.0182 31.4771 15.0932 31.5251C15.1682 31.5732 15.252 31.6059 15.3397 31.6213C15.4274 31.6368 15.5173 31.6347 15.6042 31.6151C15.6911 31.5955 15.7732 31.5589 15.8458 31.5073C15.9185 31.4558 15.9801 31.3903 16.0273 31.3147C16.0744 31.2392 16.1061 31.155 16.1204 31.0671C16.1348 30.9792 16.1315 30.8893 16.1109 30.8027C15.9227 29.9682 15.4293 29.3359 14.8546 28.9025C14.2799 28.4691 13.6285 28.2032 13.0162 27.98C12.4039 27.7568 11.8253 27.575 11.413 27.3794C11.0121 27.1893 10.8368 27.0159 10.7743 26.8656C10.7503 26.5167 10.7505 26.1986 10.7533 25.8603C10.786 25.8269 10.8323 25.8043 10.8703 25.7657C11.0273 25.606 11.1988 25.4104 11.367 25.1901C11.6298 24.846 11.8176 24.4142 11.9557 23.9601C12.0865 23.8822 12.2365 23.8731 12.3381 23.7433C12.5488 23.4743 12.6768 23.1206 12.7389 22.671C13.2868 22.4524 13.8811 22.2601 14.4499 22.031C15.1444 21.7514 15.8726 21.3847 16.1674 20.5921C16.1883 20.5359 16.2015 20.4771 16.2068 20.4173C16.2631 19.7914 16.2423 19.3516 16.2423 18.8351C16.2422 18.7125 16.2086 18.5923 16.1452 18.4874C16.0817 18.3824 15.9908 18.2969 15.8822 18.2399C15.9919 18.2973 15.849 18.2117 15.7364 18.0966C15.6237 17.9816 15.4835 17.8211 15.3514 17.6472C15.0871 17.2995 14.8803 16.8507 14.8691 16.7457C14.8545 16.6091 14.7985 16.4802 14.7085 16.3764C14.6185 16.2725 14.4989 16.1987 14.3658 16.1649C14.3434 16.1335 14.2734 16.0203 14.237 15.7181C14.2282 15.6441 14.2405 15.608 14.2514 15.588C14.358 15.5082 14.4385 15.3985 14.4827 15.2729C14.5269 15.1472 14.5329 15.0113 14.4998 14.8823C14.3045 14.1308 14.2123 13.6601 14.2265 13.0754C14.2438 12.3677 14.4516 11.8321 14.852 11.446C15.2511 11.061 15.8886 10.7868 16.9072 10.7666C17.5811 10.7686 17.931 10.9836 17.9743 11.0596C18.0252 11.1491 18.096 11.2258 18.1812 11.2837C18.2664 11.3415 18.3638 11.3791 18.4658 11.3934C18.9566 11.4615 19.1714 11.6455 19.3462 11.9374C19.521 12.2293 19.6131 12.6683 19.6077 13.1346C19.5984 13.8967 19.4765 14.4744 19.3554 14.8376C19.311 14.9716 19.3098 15.1161 19.352 15.2508C19.3942 15.3854 19.4777 15.5034 19.5906 15.588C19.6011 15.6081 19.6126 15.6429 19.6038 15.7155C19.6038 15.7159 19.6038 15.7163 19.6038 15.7168C19.5672 16.0206 19.4956 16.1344 19.4737 16.1649C19.3412 16.1991 19.2223 16.2729 19.1329 16.3765C19.0434 16.48 18.9877 16.6084 18.973 16.7444C18.962 16.8476 18.7537 17.2968 18.4881 17.6446C18.3553 17.8185 18.2151 17.9788 18.1018 18.094C17.9885 18.2092 17.8445 18.2955 17.9533 18.2385C17.8447 18.2955 17.7538 18.3811 17.6903 18.486C17.6269 18.591 17.5933 18.7112 17.5932 18.8338C17.5932 19.349 17.571 19.7901 17.6274 20.416C17.6331 20.4758 17.6468 20.5346 17.6681 20.5908C17.9617 21.3788 18.6958 21.7059 19.3804 21.9627C19.8788 22.1497 20.3852 22.3077 20.8561 22.4739C20.8576 22.5179 20.8532 22.5588 20.8588 22.6053C20.8588 22.6057 20.8588 22.6062 20.8588 22.6066C20.9169 23.0894 21.0502 23.461 21.2714 23.7433C21.3727 23.8726 21.5212 23.8823 21.6512 23.9601C21.7885 24.4138 21.9755 24.8444 22.2372 25.1888C22.4046 25.4091 22.5761 25.6058 22.7327 25.7657C22.7702 25.8041 22.8159 25.827 22.8483 25.8603C22.8511 26.203 22.8525 26.5242 22.8273 26.8801C22.7597 27.0273 22.5964 27.1947 22.207 27.3794C21.7948 27.575 21.2161 27.7581 20.6038 27.9813C19.9915 28.2045 19.3388 28.4704 18.7641 28.9038C18.1893 29.3372 17.6973 29.9682 17.5091 30.8027C17.4697 30.9768 17.5011 31.1594 17.5964 31.3103C17.6916 31.4613 17.8429 31.5682 18.017 31.6076C18.1911 31.647 18.3737 31.6156 18.5246 31.5203C18.6756 31.4251 18.7825 31.2738 18.8219 31.0997C18.9362 30.5929 19.1867 30.2701 19.5749 29.9774C19.963 29.6847 20.4938 29.4532 21.0638 29.2455C21.6337 29.0377 22.2358 28.8564 22.7839 28.5963C23.3321 28.3362 23.8837 27.9677 24.1243 27.3203C24.1452 27.2641 24.1584 27.2053 24.1637 27.1455C24.22 26.5196 24.2005 26.0798 24.2005 25.5634C24.2003 25.4406 24.1665 25.3203 24.1028 25.2153C24.0391 25.1104 23.9479 25.0249 23.8391 24.9681C23.9488 25.0256 23.8059 24.9399 23.6933 24.8248C23.5806 24.7098 23.4404 24.5493 23.3082 24.3754C23.044 24.0277 22.8371 23.5789 22.826 23.4739C22.8113 23.3379 22.7556 23.2095 22.6661 23.106C22.5767 23.0025 22.4578 22.9286 22.3253 22.8944C22.3032 22.8636 22.2317 22.7496 22.1952 22.4463C22.1948 22.4434 22.1955 22.4426 22.1952 22.4397C22.2383 22.3794 22.2712 22.3124 22.2924 22.2413C22.371 22.1587 22.4273 22.0575 22.456 21.9471C22.4848 21.8368 22.485 21.721 22.4567 21.6105C22.2614 20.859 22.1692 20.3883 22.1834 19.8036C22.2007 19.0959 22.4085 18.5603 22.8089 18.1742C23.208 17.7892 23.8455 17.515 24.8641 17.4948C25.5395 17.4964 25.8868 17.712 25.9299 17.7878C25.9809 17.8775 26.0519 17.9543 26.1374 18.0121C26.2228 18.07 26.3204 18.1075 26.4227 18.1216C26.9135 18.1897 27.1283 18.3737 27.3031 18.6656C27.4779 18.9575 27.57 19.3978 27.5646 19.8641C27.5553 20.6263 27.4334 21.2026 27.3123 21.5659C27.2676 21.7 27.2662 21.8448 27.3085 21.9797C27.3507 22.1146 27.4343 22.2328 27.5475 22.3175C27.558 22.3376 27.5694 22.3724 27.5607 22.445C27.5241 22.7489 27.4524 22.8639 27.4306 22.8944C27.2981 22.9286 27.1792 23.0025 27.0898 23.106C27.0003 23.2095 26.9445 23.3379 26.9299 23.4739C26.9189 23.5771 26.7106 24.025 26.445 24.3728C26.3122 24.5467 26.172 24.707 26.0587 24.8222C25.9454 24.9374 25.8014 25.0237 25.9102 24.9668C25.8014 25.0239 25.7104 25.1096 25.6469 25.2148C25.5834 25.32 25.5499 25.4405 25.5501 25.5634C25.5501 26.0785 25.5279 26.5196 25.5843 27.1455C25.593 27.2418 25.6225 27.3351 25.6705 27.419C25.7186 27.5029 25.7842 27.5755 25.8629 27.6318C26.1449 28.0666 26.5447 28.3867 26.9838 28.595C27.5319 28.8551 28.1341 29.0364 28.7039 29.2442C29.2738 29.4519 29.8047 29.6847 30.1928 29.9774C30.5809 30.2701 30.8315 30.5916 30.9458 31.0984C30.9643 31.1855 30.9999 31.2681 31.0506 31.3413C31.1012 31.4146 31.1659 31.4771 31.2409 31.5251C31.3159 31.5732 31.3996 31.6059 31.4874 31.6213C31.5751 31.6368 31.665 31.6347 31.7519 31.6151C31.8388 31.5955 31.9209 31.5589 31.9935 31.5073C32.0662 31.4558 32.1278 31.3903 32.175 31.3147C32.2221 31.2392 32.2538 31.155 32.2681 31.0671C32.2825 30.9792 32.2792 30.8893 32.2586 30.8027C32.0704 29.9682 31.577 29.3359 31.0023 28.9025C30.4276 28.4691 29.7762 28.2032 29.1639 27.98C28.5516 27.7568 27.973 27.575 27.5607 27.3794C27.1598 27.1893 26.9845 27.0159 26.922 26.8656C26.898 26.5167 26.8981 26.1986 26.901 25.8603C26.9337 25.8269 26.98 25.8043 27.018 25.7657C27.175 25.606 27.3465 25.4104 27.5147 25.1901C27.7775 24.846 27.9653 24.4142 28.1034 23.9601C28.2342 23.8822 28.3842 23.8731 28.4858 23.7433C28.7069 23.461 28.839 23.0887 28.8971 22.6066V22.6053C28.9477 22.1835 28.8247 21.8628 28.6488 21.6C28.7753 21.126 28.9014 20.6094 28.9103 19.8799C28.9176 19.2447 28.8143 18.569 28.4582 17.9744C28.1277 17.4225 27.5227 17.0032 26.767 16.8482C26.2881 16.3713 25.6164 16.1478 24.8602 16.1478C24.8563 16.1478 24.8523 16.1478 24.8484 16.1478C23.5837 16.1709 22.5677 16.5385 21.8759 17.2057C21.1841 17.8728 20.8615 18.7992 20.8377 19.7708C20.8377 19.7712 20.8377 19.7717 20.8377 19.7721C20.8268 20.2251 20.9002 20.6515 20.9928 21.0849C20.5819 20.9479 20.1859 20.8277 19.8522 20.7025C19.2934 20.4929 19.0296 20.2747 18.9651 20.144C18.9406 19.7922 18.9412 19.4722 18.9441 19.1321C18.9768 19.0987 19.0231 19.0761 19.0611 19.0375C19.2181 18.8778 19.3896 18.6808 19.5578 18.4606C19.8206 18.1166 20.0084 17.6859 20.1465 17.2319C20.2773 17.1539 20.4273 17.1449 20.5289 17.0151C20.7502 16.7325 20.8822 16.3599 20.9402 15.8771C20.9718 15.6155 20.932 15.3966 20.8588 15.203C21.3845 15.0032 21.9431 14.8221 22.4751 14.6024C23.1436 14.3265 23.8391 13.9579 24.1243 13.1911C24.1452 13.1348 24.1584 13.0761 24.1637 13.0163C24.22 12.3904 24.2005 11.9506 24.2005 11.4341C24.2003 11.3114 24.1665 11.191 24.1028 11.0861C24.0391 10.9812 23.9479 10.8957 23.8391 10.8388C23.9488 10.8963 23.8059 10.8107 23.6933 10.6956C23.5806 10.5805 23.4404 10.42 23.3082 10.2462C23.044 9.89847 22.8371 9.44968 22.826 9.3447C22.8113 9.20866 22.7556 9.08031 22.6661 8.97677C22.5767 8.87323 22.4578 8.79942 22.3253 8.76518C22.3032 8.73439 22.2317 8.62038 22.1952 8.31707C22.1866 8.24478 22.1978 8.20889 22.2083 8.18829C22.3152 8.10835 22.3958 7.99846 22.44 7.87257C22.4843 7.74668 22.4901 7.61049 22.4567 7.4813C22.2614 6.72974 22.1692 6.25907 22.1834 5.67441C22.2007 4.96668 22.4085 4.43104 22.8089 4.04493C23.208 3.66001 23.8455 3.38574 24.8641 3.36554C25.5395 3.36716 25.8868 3.58279 25.9299 3.65858C25.9809 3.74828 26.0519 3.82504 26.1374 3.88292C26.2228 3.9408 26.3204 3.97824 26.4227 3.99236C26.9135 4.0605 27.1283 4.24451 27.3031 4.5364C27.4779 4.82829 27.57 5.2686 27.5646 5.73486C27.5553 6.49703 27.4334 7.07333 27.3123 7.43662C27.2676 7.57074 27.2662 7.71554 27.3085 7.85047C27.3507 7.9854 27.4343 8.1036 27.5475 8.18829C27.558 8.20837 27.5694 8.24315 27.5607 8.31576C27.5241 8.61965 27.4524 8.73467 27.4306 8.76518C27.2981 8.79942 27.1792 8.87323 27.0898 8.97677C27.0003 9.08031 26.9445 9.20866 26.9299 9.3447C26.9189 9.44789 26.7106 9.89575 26.445 10.2435C26.3122 10.4174 26.172 10.5777 26.0587 10.693C25.9454 10.8082 25.8014 10.8945 25.9102 10.8375C25.8014 10.8946 25.7104 10.9804 25.6469 11.0856C25.5834 11.1908 25.5499 11.3113 25.5501 11.4341C25.5501 11.9493 25.5279 12.3904 25.5843 13.0163C25.593 13.1126 25.6225 13.2059 25.6705 13.2898C25.7186 13.3737 25.7842 13.4463 25.8629 13.5025C26.1449 13.9374 26.5447 14.2574 26.9838 14.4658C27.5319 14.7258 28.1341 14.9072 28.7039 15.1149C29.2738 15.3227 29.8047 15.5555 30.1928 15.8482C30.5809 16.1409 30.8315 16.4624 30.9458 16.9691C30.9643 17.0562 30.9999 17.1388 31.0506 17.2121C31.1012 17.2854 31.1659 17.3478 31.2409 17.3959C31.3159 17.444 31.3996 17.4767 31.4874 17.4921C31.5751 17.5076 31.665 17.5054 31.7519 17.4859C31.8388 17.4663 31.9209 17.4297 31.9935 17.3781C32.0662 17.3266 32.1278 17.2611 32.175 17.1855C32.2221 17.1099 32.2538 17.0258 32.2681 16.9379C32.2825 16.85 32.2792 16.7601 32.2586 16.6735C32.0704 15.839 31.577 15.2067 31.0023 14.7733C30.4276 14.3398 29.7762 14.074 29.1639 13.8508C28.5516 13.6276 27.973 13.4458 27.5607 13.2502C27.1598 13.06 26.9845 12.8867 26.922 12.7364C26.898 12.3874 26.8981 12.0694 26.901 11.7311C26.9337 11.6977 26.98 11.6751 27.018 11.6365C27.175 11.4767 27.3465 11.2811 27.5147 11.0609C27.7775 10.7168 27.9653 10.285 28.1034 9.83092C28.2342 9.75292 28.3842 9.74386 28.4858 9.61409C28.7069 9.33176 28.839 8.95952 28.8971 8.47739V8.47608C28.9477 8.05423 28.8247 7.73358 28.6488 7.47079C28.7753 6.99681 28.9014 6.48016 28.9103 5.75063C28.9176 5.11549 28.8143 4.43973 28.4582 3.84518C28.1277 3.29332 27.5227 2.87393 26.767 2.719C26.2881 2.24208 25.6164 2.01858 24.8602 2.01858C24.8563 2.01855 24.8523 2.01855 24.8484 2.01858Z" fill="url(#paint0_linear_59_378)"/>
<defs>
<linearGradient id="paint0_linear_59_378" x1="16.8079" y1="2.01855" x2="16.8079" y2="31.6315" gradientUnits="userSpaceOnUse">
<stop stop-color="#FFC619"/>
<stop offset="0.479167" stop-color="#F69020"/>
<stop offset="1" stop-color="#EA422A"/>
</linearGradient>
</defs>
</svg>
