<svg width="26" height="26" viewBox="0 0 26 26" fill="none" xmlns="http://www.w3.org/2000/svg">
<g clip-path="url(#clip0_59_129)">
<path d="M3.69531 12.6691C3.69531 17.6312 7.70721 21.6431 12.6693 21.6431C17.6314 21.6431 21.6433 17.6312 21.6433 12.6691C21.6433 7.70706 17.6314 3.69516 12.6693 3.69516C7.70721 3.69516 3.69531 7.70706 3.69531 12.6691Z" fill="#131517"/>
<path d="M12.6689 23.2267C6.86226 23.2267 2.11133 18.4758 2.11133 12.6691C2.11133 6.86244 6.86226 2.11151 12.6689 2.11151C15.15 2.11151 17.5782 3.00891 19.4786 4.64534L18.1061 6.22898C16.6281 4.90928 14.6749 4.22304 12.6689 4.22304C8.0236 4.22304 4.22285 8.02378 4.22285 12.6691C4.22285 17.3145 8.0236 21.1152 12.6689 21.1152V23.2267Z" fill="#606571"/>
<path d="M14.2528 6.33457L10.0298 3.16729L14.2528 0V6.33457Z" fill="#FFC619"/>
<path d="M5.80684 12.6691C5.80684 12.9859 5.59568 13.197 5.27896 13.197H3.69531V12.1413H5.27896C5.59568 12.1413 5.80684 12.3524 5.80684 12.6691ZM12.6693 19.5316C12.3526 19.5316 12.1414 19.7428 12.1414 20.0595V21.6431H13.1972V20.0595C13.1972 19.7428 12.986 19.5316 12.6693 19.5316ZM20.0596 12.1413C19.7429 12.1413 19.5317 12.3524 19.5317 12.6691C19.5317 12.9859 19.7429 13.197 20.0596 13.197H21.6433V12.1413H20.0596Z" fill="white"/>
<path d="M12.6689 23.2267C6.86226 23.2267 2.11133 18.4758 2.11133 12.6691C2.11133 10.1881 3.00873 7.75984 4.64516 5.85947L6.2288 7.23196C4.9091 8.71002 4.22285 10.6632 4.22285 12.6691C4.22285 17.3145 8.02359 21.1152 12.6689 21.1152C17.3143 21.1152 21.115 17.3145 21.115 12.6691C21.115 8.02378 17.3143 4.22304 12.6689 4.22304V2.11151C18.4756 2.11151 23.2266 6.86244 23.2266 12.6691C23.2266 18.4758 18.4756 23.2267 12.6689 23.2267Z" fill="#FFC619"/>
<path d="M12.1415 15.8364H7.91846V14.8862L9.9244 12.7747C10.3995 12.1941 10.6634 11.7718 10.6634 11.455C10.6634 11.1911 10.6107 10.9799 10.5051 10.8216C10.3995 10.6632 10.2411 10.6104 9.97719 10.6104C9.76604 10.6104 9.55489 10.716 9.44931 10.8744C9.29095 11.0855 9.23816 11.2967 9.23816 11.5606H7.91846C7.91846 11.1911 8.02403 10.8216 8.1824 10.5048C8.39355 10.1881 8.65749 9.92417 8.97422 9.7658C9.29095 9.60744 9.55489 9.50186 9.97719 9.50186C10.6634 9.50186 11.1913 9.66023 11.5608 9.97695C11.9304 10.2937 12.0887 10.716 12.0887 11.2967C12.0887 11.5606 12.0359 11.7717 11.9304 12.0357C11.8248 12.2468 11.7192 12.5108 11.508 12.7747C11.2969 13.0387 10.9802 13.3554 10.5579 13.7777L9.81883 14.7807H12.1415V15.8364ZM16.7869 13.7249H17.4203V14.7807H16.7869V15.8364H15.3088V14.7807H12.8805L12.775 13.9361L15.3088 9.50186H16.7869V13.7249ZM14.1475 13.7249H15.3088V11.4022L15.2032 11.5606L14.1475 13.7249Z" fill="white"/>
</g>
<defs>
<clipPath id="clip0_59_129">
<rect width="25.3383" height="25.3383" fill="white"/>
</clipPath>
</defs>
</svg>
