<svg width="48" height="47" viewBox="0 0 48 47" fill="none" xmlns="http://www.w3.org/2000/svg">
<path d="M23.9999 1.88C11.8252 1.88 1.91992 11.5789 1.91992 23.5C1.91992 35.4211 11.8252 45.12 23.9999 45.12C36.1746 45.12 46.0799 35.4211 46.0799 23.5C46.0799 19.1788 44.774 15.1523 42.5343 11.7702L41.6774 12.6092L41.1299 13.1453C43.0384 16.1599 44.1599 19.6996 44.1599 23.5C44.1599 34.3852 35.1167 43.24 23.9999 43.24C12.8831 43.24 3.83992 34.3852 3.83992 23.5C3.83992 12.6148 12.8831 3.76 23.9999 3.76C28.7167 3.76 33.0435 5.3744 36.4799 8.04325V9.95079L34.1418 12.2402C31.4343 9.89575 27.8897 8.46 23.9999 8.46C15.5308 8.46 8.63992 15.2073 8.63992 23.5C8.63992 31.7927 15.5308 38.54 23.9999 38.54C32.469 38.54 39.3599 31.7927 39.3599 23.5C39.3599 20.3707 38.3764 17.4621 36.6993 15.0529L35.308 16.4151C36.6501 18.4634 37.4399 20.8906 37.4399 23.5C37.4399 30.7568 31.4111 36.66 23.9999 36.66C16.5887 36.66 10.5599 30.7568 10.5599 23.5C10.5599 16.2432 16.5887 10.34 23.9999 10.34C27.3612 10.34 30.4272 11.5636 32.7843 13.5694L29.3793 16.9035C27.9022 15.7434 26.0366 15.04 23.9999 15.04C19.2364 15.04 15.3599 18.8357 15.3599 23.5C15.3599 28.1643 19.2364 31.96 23.9999 31.96C28.7634 31.96 32.6399 28.1643 32.6399 23.5C32.6399 22.1962 32.3282 20.9666 31.7887 19.863L30.3243 21.295C30.5758 21.985 30.7199 22.7264 30.7199 23.5C30.7199 27.1284 27.7055 30.08 23.9999 30.08C20.2943 30.08 17.2799 27.1284 17.2799 23.5C17.2799 19.8716 20.2943 16.92 23.9999 16.92C25.5071 16.92 26.8945 17.4145 28.0162 18.2382L24.4949 21.6861C24.3336 21.6431 24.1672 21.6208 23.9999 21.62C23.4907 21.62 23.0023 21.8181 22.6423 22.1706C22.2822 22.5232 22.0799 23.0014 22.0799 23.5C22.0799 23.9986 22.2822 24.4768 22.6423 24.8294C23.0023 25.1819 23.4907 25.38 23.9999 25.38C24.5091 25.38 24.9975 25.1819 25.3576 24.8294C25.7176 24.4768 25.9199 23.9986 25.9199 23.5C25.9198 23.3357 25.8978 23.1721 25.8543 23.0135L37.8374 11.28H40.3199L45.1199 6.58H41.2799V2.82L37.5618 6.46067C33.8158 3.59489 29.1113 1.88 23.9999 1.88Z" fill="url(#paint0_linear_59_233)"/>
<defs>
<linearGradient id="paint0_linear_59_233" x1="23.9999" y1="1.88" x2="23.9999" y2="45.12" gradientUnits="userSpaceOnUse">
<stop stop-color="#FFC619"/>
<stop offset="0.479167" stop-color="#F69020"/>
<stop offset="1" stop-color="#EA422A"/>
</linearGradient>
</defs>
</svg>
