<svg width="44" height="44" viewBox="0 0 44 44" fill="none" xmlns="http://www.w3.org/2000/svg">
<g clip-path="url(#clip0_59_187)">
<path d="M22 0.880005C18.9475 0.880005 17.0603 1.55719 16.555 1.76C16.4656 1.78407 16.3831 1.82188 16.3075 1.87C16.2972 1.87 16.2903 1.87 16.28 1.87C16.2628 1.87688 16.2422 1.88719 16.225 1.8975C16.2147 1.90782 16.2078 1.91469 16.1975 1.925C16.1803 1.93188 16.1597 1.94219 16.1425 1.9525C16.1322 1.96282 16.1253 1.96969 16.115 1.98C16.0841 2.00407 16.0566 2.03157 16.0325 2.06251C16.0222 2.07969 16.0119 2.10032 16.005 2.1175C15.9947 2.12782 15.9878 2.13469 15.9775 2.145C15.9672 2.16219 15.9569 2.18282 15.95 2.2L14.3825 4.51L10.3675 5.80251C10.3125 5.81626 10.2541 5.83344 10.2025 5.85751C9.42219 6.11188 8.50094 6.68938 7.48 7.72751C6.36625 8.86188 5.1975 10.5119 4.345 12.815C3.685 14.5956 2.61938 17.3903 1.705 19.9375C1.24781 21.2128 0.828437 22.4056 0.5225 23.43C0.216563 24.4544 0 25.2244 0 25.905V38.72C0 39.2047 0.395313 39.6 0.88 39.6H7.04C7.52469 39.6 7.92 39.2047 7.92 38.72V26.4275C7.92 26.4309 7.92 26.4275 7.92 26.4C7.92688 26.3588 7.95094 26.2556 8.0025 26.125C8.085 25.9153 8.22594 25.6438 8.3875 25.3275C8.70719 24.6916 9.15406 23.9009 9.5975 23.155C9.63875 23.0828 9.63875 23.0897 9.68 23.0175V42.24C9.68 42.7247 10.0753 43.12 10.56 43.12H33.44C33.9247 43.12 34.32 42.7247 34.32 42.24L34.265 24.7225V24.695L34.2925 22.9625C34.3509 23.0588 34.3441 23.0553 34.4025 23.155C34.8459 23.9009 35.2928 24.6916 35.6125 25.3275C35.7741 25.6438 35.915 25.9153 35.9975 26.125C36.0594 26.2831 36.0766 26.4138 36.08 26.4275V38.72C36.08 39.2047 36.4753 39.6 36.96 39.6H43.12C43.6047 39.6 44 39.2047 44 38.72V25.905C44 25.2244 43.7834 24.4544 43.4775 23.43C43.1716 22.4056 42.7522 21.2128 42.295 19.9375C41.3806 17.3903 40.315 14.5956 39.655 12.815C38.8025 10.5119 37.6338 8.86188 36.52 7.72751C35.4888 6.67907 34.5572 6.10501 33.77 5.85751C33.7253 5.83688 33.6806 5.81626 33.6325 5.80251L29.6175 4.51L28.0775 2.2275C28.0603 2.2 28.0431 2.17251 28.0225 2.145C28.0053 2.12438 27.9881 2.10719 27.9675 2.09C27.9675 2.07969 27.9675 2.07282 27.9675 2.06251C27.885 1.96969 27.7819 1.89407 27.665 1.8425C27.665 1.8425 27.6409 1.815 27.6375 1.815C27.5859 1.79094 27.5275 1.77375 27.4725 1.76C27.0119 1.57438 25.1109 0.880005 22 0.880005ZM22 2.64C24.1347 2.64 25.4959 2.95282 26.235 3.19001C26.1078 3.63688 25.9084 4.21782 25.5475 4.84001C24.8738 6.00188 23.8734 7.04001 22 7.04001C20.1266 7.04001 19.1262 6.00188 18.4525 4.84001C18.0916 4.21782 17.8922 3.63688 17.765 3.19001C18.5041 2.95282 19.8653 2.64 22 2.64ZM16.4725 4.62001C16.6203 4.98782 16.7097 5.32126 16.94 5.72001C17.4797 6.65157 18.3288 7.65188 19.525 8.25001L17.1875 10.5875L15.9225 5.47251L16.4725 4.62001ZM27.5275 4.62001L28.0775 5.47251L26.8125 10.5875L24.475 8.25001C25.6712 7.65188 26.5203 6.65157 27.06 5.72001C27.2903 5.32126 27.3797 4.98782 27.5275 4.62001ZM14.3275 6.40751L15.8675 12.54C15.9431 12.8528 16.1803 13.1003 16.4897 13.1863C16.7956 13.2688 17.1291 13.1828 17.3525 12.9525L21.56 8.74501C21.7078 8.75532 21.8453 8.80001 22 8.80001C22.1547 8.80001 22.2922 8.75532 22.44 8.74501L26.6475 12.9525C26.8709 13.1828 27.2044 13.2688 27.5103 13.1863C27.8197 13.1003 28.0569 12.8528 28.1325 12.54L29.6725 6.40751L32.395 7.26001C32.2781 7.81688 32.0066 9.03032 31.8175 11.3575C31.6112 13.9047 31.6388 17.0191 32.4225 19.745C32.4294 19.7725 32.4397 19.8 32.45 19.8275C32.4534 19.8344 32.4466 19.8481 32.45 19.855C32.4637 19.9409 32.4912 20.0234 32.5325 20.1025C32.5462 20.1472 32.5462 20.1953 32.56 20.24L32.505 24.695L32.56 41.36H11.44V20.35C12.7016 17.9644 12.6569 14.6678 12.375 11.825C12.1241 9.31563 11.77 7.85469 11.6325 7.26001L14.3275 6.40751ZM10.01 7.94751C10.2094 8.86876 10.4637 10.1956 10.6425 11.99C10.8831 14.4134 10.8247 17.2081 10.175 19.0025C10.0581 19.0884 9.96187 19.2019 9.9 19.3325C9.9 19.3325 8.9925 20.7453 8.085 22.275C7.63125 23.0416 7.17063 23.8322 6.82 24.53C6.64469 24.8806 6.49344 25.1969 6.38 25.4925C6.26656 25.7881 6.16 26.0184 6.16 26.4V37.84H1.76V25.905C1.76 25.7331 1.90781 24.9253 2.2 23.9525C2.49219 22.9797 2.90469 21.7731 3.355 20.515C4.25906 17.9988 5.32469 15.2556 5.995 13.4475C6.765 11.3747 7.80656 9.92063 8.745 8.965C9.19188 8.51126 9.64563 8.19157 10.01 7.94751ZM34.0175 7.94751C34.3784 8.18813 34.815 8.51813 35.255 8.965C36.1934 9.92063 37.235 11.3747 38.005 13.4475C38.6753 15.2556 39.7409 17.9988 40.645 20.515C41.0953 21.7731 41.5078 22.9797 41.8 23.9525C42.0922 24.9253 42.24 25.7331 42.24 25.905V37.84H37.84V26.4C37.84 26.0184 37.7334 25.7881 37.62 25.4925C37.5066 25.1969 37.3553 24.8806 37.18 24.53C36.8294 23.8322 36.3688 23.0416 35.915 22.275C35.0075 20.7453 34.1 19.3325 34.1 19.3325C34.0759 19.2844 34.0484 19.2397 34.0175 19.195C33.3678 16.8403 33.3816 13.9081 33.5775 11.495C33.7047 9.94469 33.8697 8.78626 34.0175 7.94751Z" fill="url(#paint0_linear_59_187)"/>
</g>
<defs>
<linearGradient id="paint0_linear_59_187" x1="22" y1="0.880005" x2="22" y2="43.12" gradientUnits="userSpaceOnUse">
<stop stop-color="#FFC619"/>
<stop offset="0.489583" stop-color="#F69020"/>
<stop offset="1" stop-color="#EA422A"/>
</linearGradient>
<clipPath id="clip0_59_187">
<rect width="44" height="44" fill="white"/>
</clipPath>
</defs>
</svg>
